<svg viewBox="0 0 16 17" xmlns="http://www.w3.org/2000/svg">
<path fill-rule="evenodd" clip-rule="evenodd" d="M0.583496 8.92709C0.583496 4.83324 3.90603 1.51123 8.00016 1.51123C8.41438 1.51123 8.75016 1.84702 8.75016 2.26123C8.75016 2.67544 8.41438 3.01123 8.00016 3.01123C4.73429 3.01123 2.0835 5.66183 2.0835 8.92709C2.0835 12.1923 4.73429 14.8429 8.00016 14.8429C11.266 14.8429 13.9168 12.1923 13.9168 8.92709C13.9168 8.51288 14.2526 8.17709 14.6668 8.17709C15.081 8.17709 15.4168 8.51288 15.4168 8.92709C15.4168 13.0209 12.0943 16.3429 8.00016 16.3429C3.90603 16.3429 0.583496 13.0209 0.583496 8.92709Z"/>
<path fill-rule="evenodd" clip-rule="evenodd" d="M14.6635 2.26435C14.9564 2.55724 14.9564 3.03211 14.6635 3.32501L9.19683 8.79167C8.90394 9.08457 8.42907 9.08457 8.13617 8.79167C7.84328 8.49878 7.84328 8.02391 8.13617 7.73101L13.6028 2.26435C13.8957 1.97145 14.3706 1.97145 14.6635 2.26435Z"/>
<path fill-rule="evenodd" clip-rule="evenodd" d="M10.6968 2.26123C10.6968 1.84702 11.0326 1.51123 11.4468 1.51123H14.6668C15.081 1.51123 15.4168 1.84702 15.4168 2.26123V5.48123C15.4168 5.89544 15.081 6.23123 14.6668 6.23123C14.2526 6.23123 13.9168 5.89544 13.9168 5.48123V3.01123H11.4468C11.0326 3.01123 10.6968 2.67544 10.6968 2.26123Z"/>
</svg>
