<svg width="254" height="48" viewBox="0 0 254 48" fill="none" xmlns="http://www.w3.org/2000/svg">
<g clip-path="url(#clip0_517_790)">
<mask id="mask0_517_790" style="mask-type:luminance" maskUnits="userSpaceOnUse" x="0" y="0" width="254" height="48">
<path d="M254 0.304764H0V47.8009H254V0.304764Z" fill="white"/>
</mask>
<g mask="url(#mask0_517_790)">
<path d="M40.8321 15.3086H41.7092C44.6744 15.3086 47.083 17.7368 47.083 20.7263V27.3791C47.083 30.3688 44.6744 32.7969 41.7092 32.7969H34.6648C32.9943 32.7969 32.2007 33.653 32.2007 35.2811V42.3831C32.2007 45.3726 29.7923 47.8009 26.827 47.8009H20.2282C17.2628 47.8009 14.8544 45.3726 14.8544 42.3831C14.8544 42.3831 14.8544 37.0637 14.8544 35.2811C14.8544 33.5127 13.9912 32.7969 12.3763 32.7969H5.37375C2.40844 32.7828 0 30.3547 0 27.3651V20.7123C0 17.7228 2.40844 15.2947 5.37375 15.2947H12.4042C13.9634 15.2947 14.8822 14.4104 14.8822 12.7683V5.72248C14.8822 2.73286 17.2907 0.304764 20.256 0.304764H26.8548C29.8202 0.304764 32.2286 2.73286 32.2286 5.72248V12.7822C32.2286 14.5087 32.855 15.3086 34.6509 15.3086H35.8899L32.2703 20.2913C29.4999 20.0666 27.2863 17.7228 27.2863 14.8736V7.79967C27.2863 6.07338 26.6321 5.28732 24.7944 5.28732H22.2886C20.7293 5.28732 19.8243 6.12955 19.8243 7.79967V14.8736C19.8243 17.8631 17.4159 20.2913 14.4506 20.2913H7.43415C5.62433 20.2913 4.94218 21.4843 4.94218 22.8177V25.316C4.94218 26.8178 5.84708 27.8143 7.40631 27.8143H14.4506C17.4159 27.8143 19.8243 30.2424 19.8243 33.232V40.3198C19.8243 41.9199 20.6179 42.8182 22.2607 42.8182H24.7805C26.3397 42.8182 27.2724 41.8637 27.2724 40.2918V33.232C27.2724 30.2424 29.6808 27.8143 32.6462 27.8143H39.6906C41.3889 27.8143 42.1547 26.9441 42.1547 25.2879V22.7896C42.1547 21.0772 41.2637 20.2913 39.6349 20.2913H37.2124L40.8321 15.3086Z" fill="url(#paint0_linear_517_790)"/>
<path d="M102.528 10.3039L113.743 37.8016H108.564L105.956 31.28H93.4554L90.8849 37.8016H85.9438L96.997 10.3039H102.528ZM95.2071 26.7659H104.166L99.6913 15.4903L95.2071 26.7659Z" fill="#8168F0"/>
<path d="M136.982 14.8276H122.464V37.8016H117.599V10.3039H141.857V37.8016H136.992V14.8276H136.982Z" fill="#8168F0"/>
<path d="M169.02 14.8274H159.833V37.8014H154.969V14.8274H145.934V10.3133H169.02V14.8274Z" fill="#8168F0"/>
<path d="M190.517 25.9016H177.979V33.2875H192.383V37.8016H173.115V10.3039H191.955V14.818H177.979V21.3779H190.517V25.9016Z" fill="#8168F0"/>
<path d="M81.8324 25.9016H69.2941V33.2875H83.6983V37.8016H64.4292V10.3039H83.27V14.818H69.2941V21.3779H81.8324V25.9016Z" fill="#8168F0"/>
<path d="M203.043 37.8016H198.179V10.3039H203.043V21.8485H207.129L215.887 10.3039H221.809L211.413 23.3852L223.484 37.8016H217.257L207.366 25.9016H203.043V37.8016Z" fill="#8168F0"/>
<path d="M240.552 10.3039L251.767 37.8016H246.588L243.979 31.28H231.48L228.909 37.8016H223.968L235.022 10.3039H240.552ZM233.231 26.7659H242.19L237.715 15.4903L233.231 26.7659Z" fill="#8168F0"/>
</g>
</g>
<defs>
<linearGradient id="paint0_linear_517_790" x1="13.2263" y1="42.0577" x2="34.7615" y2="5.06006" gradientUnits="userSpaceOnUse">
<stop stop-color="#8168F0"/>
<stop offset="0.137" stop-color="#7F6DF0"/>
<stop offset="0.2924" stop-color="#787AF0"/>
<stop offset="0.4568" stop-color="#6C91F1"/>
<stop offset="0.6273" stop-color="#5DB1F1"/>
<stop offset="0.8012" stop-color="#48D9F2"/>
<stop offset="0.8195" stop-color="#46DEF2"/>
<stop offset="1" stop-color="#50E3C2"/>
</linearGradient>
<clipPath id="clip0_517_790">
<rect width="254" height="48" fill="white"/>
</clipPath>
</defs>
</svg>
