<svg width="201" height="41" viewBox="0 0 201 41" fill="none" xmlns="http://www.w3.org/2000/svg">
<g clip-path="url(#clip0_517_768)">
<path fill-rule="evenodd" clip-rule="evenodd" d="M36.5694 26.7194L32.2127 16.7675C31.5444 15.246 29.2992 15.2371 28.2123 16.763L20.7906 27.2532L14.6296 35.746L13.8322 36.8448C12.1928 38.998 9.60461 40.4305 6.88274 40.4305C2.69524 40.4305 -0.222647 37.0406 0.365385 32.8632C0.583669 31.2838 1.27862 29.8157 2.27649 28.6012L18.8928 5.52982C20.5678 3.22535 23.214 1.70831 26.0027 1.70831C28.6978 1.70831 30.8584 3.12303 31.8875 5.24955L42.0221 28.4811C42.6903 29.7134 42.9754 31.2038 42.7482 32.8098C42.2493 36.391 39.4071 39.4207 36.0081 40.2704C35.2686 40.4706 34.4891 40.5818 33.6961 40.5818C29.415 40.5818 26.2299 37.4454 26.5773 33.5705C26.9248 29.7001 30.6802 26.5637 34.9568 26.5637C35.5137 26.5637 36.0527 26.6171 36.5694 26.7194Z" fill="#FDB913"/>
<path fill-rule="evenodd" clip-rule="evenodd" d="M192.643 22.6176C191.614 22.4085 190.848 22.3062 190.331 22.3062C185.578 22.3062 183.199 23.8633 183.199 26.973C183.199 29.2819 184.54 30.4386 187.226 30.4386C190.839 30.4386 192.643 28.6324 192.643 25.0244V22.6176ZM193.222 32.1736C192.674 33.0722 191.721 33.8063 190.353 34.3846C189.008 34.9452 187.591 35.2255 186.112 35.2255C183.337 35.2255 181.15 34.5403 179.559 33.1568C177.969 31.7643 177.176 29.789 177.176 27.2399C177.176 24.2548 178.29 21.9191 180.526 20.2375C182.771 18.5514 185.961 17.7106 190.09 17.7106C190.799 17.7106 191.632 17.8307 192.599 18.0709C192.599 15.0369 190.679 13.5198 186.838 13.5198C184.571 13.5198 182.678 13.898 181.15 14.6543L179.849 9.98306C181.92 8.99098 184.388 8.49271 187.248 8.49271C191.182 8.49271 194.069 9.39137 195.9 11.1887C197.73 12.9682 198.644 16.3537 198.644 21.3408V26.8528C198.644 30.2873 199.334 32.445 200.72 33.3258C200.221 34.1933 199.664 34.7227 199.054 34.914C198.443 35.1231 197.744 35.2255 196.96 35.2255C196.091 35.2255 195.311 34.9051 194.621 34.2645C193.931 33.6239 193.463 32.9254 193.222 32.1736ZM112.715 22.6176C111.686 22.4085 110.916 22.3062 110.403 22.3062C105.646 22.3062 103.267 23.8633 103.267 26.973C103.267 29.2819 104.608 30.4386 107.294 30.4386C110.907 30.4386 112.715 28.6324 112.715 25.0244V22.6176ZM113.294 32.1736C112.746 33.0722 111.789 33.8063 110.426 34.3846C109.076 34.9452 107.664 35.2255 106.185 35.2255C103.405 35.2255 101.222 34.5403 99.6316 33.1568C98.0412 31.7643 97.2438 29.789 97.2438 27.2399C97.2438 24.2548 98.362 21.9191 100.594 20.2375C102.843 18.5514 106.033 17.7106 110.163 17.7106C110.867 17.7106 111.7 17.8307 112.666 18.0709C112.666 17.1545 112.493 16.4204 112.141 15.8421C111.936 15.5084 111.673 15.2282 111.352 14.9924C110.394 14.2984 108.911 13.938 106.906 14.0181C103.962 14.1382 98.7451 14.9879 92.1253 15.0013V34.745H86.1024V24.0323L86.0801 15.0013C81.7011 15.1881 77.2463 13.4264 74.903 13.2796C72.7291 13.2796 71.6778 14.116 71.6778 15.7843C71.6778 16.4427 72.0208 17.0344 72.7113 17.5638C73.4419 18.0665 74.8229 18.7249 76.8676 19.5346C77.8343 19.9083 78.6852 20.3265 79.4157 20.7758C80.5384 21.4164 81.4115 22.1371 82.0352 22.9335C83.033 24.1969 83.532 25.7318 83.532 27.5291C83.532 29.9181 82.641 31.8043 80.8591 33.1835C79.0905 34.5448 76.6805 35.2255 73.629 35.2255C71.9094 35.2255 70.5284 35.0831 69.4816 34.7939C68.4525 34.5226 67.1294 33.9531 65.5079 33.0856L67.6507 28.2987C69.4504 29.7268 71.4818 30.4386 73.7493 30.4386C76.0925 30.4386 77.2641 29.6066 77.2685 27.9384C77.2685 26.9596 76.9122 26.1544 76.2083 25.5316C75.5 24.9043 74.1235 24.1658 72.0876 23.3161C67.6373 21.4698 65.4099 18.8895 65.4099 15.5663C65.4099 13.3374 66.2608 11.6069 67.9625 10.3701C69.6687 9.11999 71.8426 8.49271 74.4977 8.49271C75.2238 8.49271 76.0747 8.67066 76.9701 8.95094C79.6385 9.48034 83.082 10.4235 86.1024 10.4235C86.2271 7.34048 87.1359 4.85806 88.8243 2.96287C90.5304 1.07214 92.7311 0.128998 95.4263 0.128998C96.8161 0.128998 98.5179 0.431514 100.523 1.041L98.7807 5.49868C97.4977 5.07605 96.5132 4.8625 95.8227 4.8625C94.7135 4.8625 93.7646 5.34297 92.9806 6.29501C92.2144 7.24705 91.8312 8.42153 91.8312 9.814C91.8312 10.0186 91.8401 10.2188 91.8535 10.4235C98.01 10.4235 101.405 9.93857 103.717 9.53373C104.995 9.20897 108.777 9.02212 109.45 9.08885C112.341 9.33353 114.524 10.1833 116.003 11.638C116.524 12.1407 116.965 12.7769 117.335 13.5421C118.253 15.3216 118.716 17.804 118.716 21.3408V26.8528C118.716 30.2873 119.406 32.445 120.787 33.3258C120.288 34.1933 119.736 34.7227 119.126 34.914C118.515 35.1231 117.816 35.2255 117.028 35.2255C116.159 35.2255 115.379 34.9051 114.689 34.2645C113.998 33.6239 113.535 32.9254 113.294 32.1736ZM58.8213 34.745L56.2419 27.6002H44.6016C44.5392 27.4579 44.4724 27.32 44.4011 27.1821L40.8818 19.1164L47.5284 2.23327H52.8251L65.7351 34.745H58.8213ZM50.1701 9.79176L45.9291 22.8089H54.411L50.1701 9.79176ZM136.695 14.5831C135.622 13.8757 134.437 13.5243 133.154 13.5198C131.755 13.5198 130.512 14.156 129.416 15.4239C128.343 16.6918 127.804 18.24 127.804 20.0685V34.745H121.781V8.97318H127.804V11.331C129.492 9.4403 131.733 8.49271 134.526 8.49271C136.584 8.49271 138.157 8.80413 139.248 9.43141L136.695 14.5831ZM170.209 34.745V18.6004C170.209 15.2148 168.69 13.5243 165.652 13.5198C164.752 13.5198 163.887 13.7868 163.05 14.3162C162.217 14.8456 161.629 15.4551 161.29 16.1446V34.745H155.267V17.6617C155.267 16.3938 154.875 15.3928 154.087 14.6543C153.298 13.898 152.189 13.5243 150.759 13.5198C150.006 13.5198 149.178 13.8046 148.278 14.3651C147.396 14.9257 146.754 15.544 146.349 16.2158V34.745H140.326V8.97318H144.473L145.703 11.2376C147.374 9.40916 149.53 8.49271 152.185 8.49271C155.606 8.49271 158.181 9.42251 159.918 11.2821C160.671 10.4324 161.727 9.76062 163.077 9.26235C164.426 8.75074 165.772 8.49271 167.122 8.49271C169.999 8.49271 172.231 9.32019 173.822 10.9707C175.43 12.6078 176.232 14.8634 176.232 17.7328V34.745H170.209Z" fill="#231F20"/>
</g>
<defs>
<clipPath id="clip0_517_768">
<rect width="201" height="41" fill="white"/>
</clipPath>
</defs>
</svg>
