<svg width="185" height="36" viewBox="0 0 185 36" fill="none" xmlns="http://www.w3.org/2000/svg">
<path d="M19.0469 27.7472H9.45369V21.1827H19.0469C21.5336 21.1827 22.8779 22.5756 22.8779 24.4156C22.8779 26.2557 21.5336 27.7472 19.0469 27.7472ZM9.45369 8.25299H18.0513C20.2398 8.25299 21.5336 9.19767 21.5336 11.2865C21.5336 13.1265 20.2398 14.2203 18.0513 14.2203H9.45369V8.25299ZM26.2616 17.3042C29.3459 16.3091 31.336 13.5244 31.336 10.093C31.336 4.52249 27.0576 0.842388 19.3944 0.842388H0V35.1578H19.594C27.903 35.1578 32.8294 31.2289 32.8294 24.9121C32.8294 21.3317 30.2417 18.3475 26.2616 17.3042Z" fill="#2BB351"/>
<path d="M35.9888 35.1577H45.7557V0.843357H35.9888V35.1577Z" fill="#2BB351"/>
<path d="M128.287 22.1277L129.183 19.2432C130.277 15.8119 131.173 13.0765 131.87 10.3411H132.174C132.822 13.0765 133.617 15.8119 134.711 19.2432L135.607 22.1277H128.287ZM126.103 0.842716L114.062 35.1571H124.207L125.701 30.3339H138.244L139.787 35.1571H150.584L138.543 0.842716H126.103Z" fill="#2BB351"/>
<path d="M166.44 26.4546H162.162V9.54564H166.44C171.764 9.54564 174.501 13.3255 174.501 17.9996C174.501 22.6254 171.764 26.4546 166.44 26.4546ZM166.59 0.84293H152.459V35.1573H166.59C177.985 35.1573 185 27.3993 185 17.9996C185 8.55055 177.985 0.84293 166.59 0.84293Z" fill="#2BB351"/>
<path d="M91.8176 12.7871C93.591 10.6468 96.3653 9.2174 99.0409 9.2174C102.186 9.2174 104.549 10.4613 107.423 13.009L108.084 13.6116L113.182 6.37476L112.929 6.0949C109.394 2.22178 104.332 -3.8147e-06 99.0409 -3.8147e-06C92.9398 -3.8147e-06 87.2399 3.52783 84.5268 6.8069C82.5184 9.23349 81.0154 12.1319 79.4233 15.1997C76.6941 20.4593 74.5367 24.2091 71.4448 25.8518L71.4405 25.8594L71.4362 25.8561C70.2937 26.462 69.0256 26.7826 67.5515 26.7826C65.1366 26.7826 62.8665 25.869 61.1586 24.2102C59.4496 22.5513 58.5098 20.3456 58.5098 17.9995C58.5098 13.157 62.5661 9.2174 67.5515 9.2174C71.0028 9.2174 73.7889 10.561 75.8369 13.2117L75.942 13.35L80.6142 5.26173C77.1382 1.91082 72.4414 -3.8147e-06 67.5515 -3.8147e-06C57.3329 -3.8147e-06 49.0186 8.07434 49.0186 17.9995C49.0186 27.9257 57.3329 36 67.5515 36C79.2592 36 84.2532 26.3751 87.904 19.3398C89.2622 16.7213 90.4369 14.4523 91.8176 12.7871Z" fill="#2BB351"/>
<path d="M108.343 21.6858C106.364 24.7654 102.957 26.8006 99.0808 26.8006C99.0454 26.8006 99.011 26.7985 98.9756 26.7985C98.9477 26.7985 98.9209 26.8006 98.893 26.8006C97.1647 26.8006 95.5394 26.3803 94.061 25.5707C92.72 24.8726 91.5399 23.9011 90.584 22.7323L85.9688 30.723C89.3739 34.0654 93.9849 35.9633 98.893 35.9633C104.378 35.9633 109.519 33.6021 112.998 29.4856L114.292 28.0788L108.343 21.6858Z" fill="#2BB351"/>
</svg>
