<svg width="202" height="52" viewBox="0 0 202 52" fill="none" xmlns="http://www.w3.org/2000/svg">
<path d="M74.6431 25.9107C74.6431 30.435 76.164 32.8816 81.2069 32.8816C86.3298 32.8816 87.7306 30.435 87.7306 25.9107V11.7356C87.7306 7.21128 86.4099 4.64813 81.2069 4.64813C76.164 4.64813 74.6431 7.21128 74.6431 11.7356V25.9107ZM80.2263 9.85212C80.2263 8.93947 80.7266 8.49286 81.2069 8.49286C81.6671 8.49286 82.1474 8.93947 82.1474 9.85212V27.5612C82.1474 28.4739 81.6471 28.9204 81.1068 28.9204C80.7666 28.9204 80.2463 28.4739 80.2463 27.5612V9.85212H80.2263ZM59.3744 32.1758H64.8358V21.7322H65.3644C69.5144 21.7322 72.0983 20.6532 72.0983 16.0095V10.2096C72.0983 6.35589 69.2403 5.35393 65.756 5.35393H59.3744V32.1758ZM64.8358 18.0327V8.76447H65.6385C66.3236 8.76447 66.7347 9.20764 66.7347 10.306V16.5105C66.7347 17.3775 66.3236 18.0519 65.7168 18.0519H64.8358V18.0327ZM42.6514 32.1758H48.2493V18.3987H48.3487L50.9277 32.1758H56.4655L53.0069 16.3755L56.4655 5.35393H51.1076L48.3487 17.1656H48.2493V5.35393H42.6514V32.1758ZM34.1786 5.35393L31.0982 14.8918L30.4025 18.3987H30.2436L30.4025 14.6607V5.35393H24.8379V32.1758H30.4025L33.3638 21.0578L34.2183 17.0499H34.4568L34.1786 21.0578V32.1758H39.7432V5.35393H34.1786ZM1.57129 32.1758H6.06839V12.1943H6.18723L6.7617 17.6087L9.29748 32.1758H13.9925L16.5679 17.5702L17.1027 12.1172H17.2612V32.1758H22.2931V5.35393H14.6859L12.6059 19.0346L11.9521 24.2371H11.8333L11.4568 19.0346L9.53517 5.35393H1.57129V32.1758Z" fill="#0038A8"/>
<path d="M160.801 22.6463V49.4691H166.305V26.3487H170.982V22.6463H160.801ZM174.253 22.6463V49.4691H184.432V45.4199H179.737V36.4523H184.432V32.5582H179.737V26.3487H184.432V22.6463H174.253ZM187.703 22.6463V49.4691H193.221V36.5504H194.934V49.4691H200.429V22.6463H194.934V32.5582H193.221V22.6463H187.703Z" fill="#00B760"/>
<path d="M116.166 1.47184C109.797 1.45841 105.043 2.47148 101.37 8.81058C97.3517 15.7278 94.7847 22.78 89.9308 29.2733C89.9308 29.2733 89.9308 29.2938 89.9121 29.2938V38.1747C97.5908 30.3905 100.594 21.4892 105.388 11.7397C108.611 5.20794 111.834 2.76103 118.996 1.54714V1.52892C118.019 1.49762 117.075 1.47371 116.166 1.47184ZM157.166 19.4708C155.986 21.604 154.805 23.7374 153.584 25.8514C149.58 32.8086 144.715 42.4744 140.751 46.5103C136.806 50.5462 133.502 49.3949 127.356 49.0105C135.024 51.4513 143.073 51.5471 148.279 44.7629C151.562 40.4772 154.444 35.8443 157.166 31.1165V31.0983V19.4708Z" fill="#0038A8"/>
<path d="M89.9308 1.47183L89.9121 1.49005C89.9238 1.49058 89.9238 1.49239 89.9308 1.49239V1.47183ZM89.9308 1.49239V6.41757C95.5264 7.66866 98.0589 11.4621 101.302 16.1585C107.688 25.3589 113.737 34.8091 120.262 43.9325C124.079 49.2641 129.437 49.8227 135.546 49.8227L137.9 48.7254C134.795 49.707 130.623 48.6084 128.35 45.7598C119.214 34.3652 111.622 21.9906 103.337 10.0379C102.823 9.28724 102.21 8.59429 101.617 7.88213C98.2005 3.80667 95.1192 1.91891 89.9308 1.49239ZM117.751 1.47639C116.527 1.45046 115.246 1.55102 113.906 1.79575C118.724 2.25996 121.723 3.63416 124.982 7.15438C132.759 15.5488 137.975 26.1274 144.153 35.6242C147.611 40.9239 151.45 47.0761 157.166 49.8227L157.145 49.8021V44.5986C152.568 41.9488 150.331 36.496 147.611 32.086C145.713 29.0107 143.833 25.9531 141.913 22.8972C136.243 13.8524 129.588 1.72714 117.751 1.47639Z" fill="#00B760"/>
</svg>
