<svg width="223" height="44" viewBox="0 0 223 44" fill="none" xmlns="http://www.w3.org/2000/svg">
<g clip-path="url(#clip0_517_808)">
<path fill-rule="evenodd" clip-rule="evenodd" d="M57.9802 17.4128L44.2285 43.1574H53.9848L56.7723 37.634H64.3914L65.1348 43.1574H75.4485L71.1743 17.4128H57.9802ZM63.3693 23.4979L64.4844 31.5489H59.0023L63.0906 23.4979H63.3693ZM81.581 17.4128L76.7493 43.1574H86.5056L90.0364 24.434H96.4477L92.9169 43.1574H102.673L107.505 17.4128H81.581ZM109.642 17.4128L108.248 24.9957H116.889L113.544 43.1574H123.301L126.646 24.9957H135.287L136.681 17.4128H109.642ZM138.911 17.4128L134.079 43.1574H156.658L157.773 37.0723H144.95L145.694 33.0468H157.68L158.795 27.1489H146.809L147.459 23.4043H160.003L161.118 17.3191H138.911V17.4128ZM174.219 17.4128H164.463L159.631 43.1574H169.387L171.431 32.2043H171.617L175.891 43.1574H187.599L180.723 29.4894L191.594 17.4128H180.444L172.546 27.5234H172.361L174.219 17.4128ZM194.568 17.4128L189.736 43.1574H201.165L210.271 28.7404H210.456L207.762 43.1574H217.518L222.35 17.4128H210.921L201.722 32.1106H201.629L204.417 17.4128H194.568Z" fill="#EE2930"/>
<path fill-rule="evenodd" clip-rule="evenodd" d="M29.4548 23.0298C31.7777 23.6851 33.5431 22.5617 34.7511 21.3447C36.9811 19.0043 36.7023 16.0085 38.6536 13.5745C39.7686 12.1702 42.8348 10.766 45.3436 10.766C46.9231 10.766 48.0381 11.3277 48.7815 12.6383C48.5956 12.8255 48.1311 13.0128 47.9452 13.1064C46.4586 13.9489 44.879 14.8851 44.3215 16.7574C42.9277 21.4383 44.3215 26.4 43.4852 31.3617C42.9277 34.5447 41.9056 36.7915 40.6048 38.1021C29.8265 48.4936 12.4511 33.4213 5.01773 26.1191C1.85856 22.9362 0.000228606 20.2213 1.4869 19.0979C2.0444 18.7234 3.06648 19.2851 3.62398 19.566L3.71689 19.6596L3.90273 19.566C3.90273 19.566 3.90273 19.4723 3.80981 19.4723C3.34523 18.9106 2.41606 17.8808 2.23023 17.6C-0.278521 14.9787 -0.185605 14.1362 0.371895 13.2936C0.557729 13.0128 1.20815 12.8255 1.85856 12.9191H1.95148L2.0444 12.8255L1.95148 12.7319C1.11523 11.5149 0.743562 10.4851 1.57981 9.64255C3.1594 8.51915 6.22565 10.9532 6.41148 10.9532C6.59731 10.8596 6.87606 8.89361 10.4998 10.1106C17.8402 12.3574 22.1144 21.0638 29.4548 23.0298Z" fill="#0181CC"/>
<path fill-rule="evenodd" clip-rule="evenodd" d="M35.2157 8.98723C34.8441 7.67659 33.0787 1.59149 31.0345 1.59149C30.5699 1.49787 30.1982 1.6851 29.9195 1.87234C29.5478 2.15319 29.5478 2.90213 29.5478 2.90213L29.4549 2.99574C28.9903 2.24681 28.4328 1.59149 27.6895 1.21702C26.3887 0.468083 24.902 1.1234 25.3666 3.27659C25.3666 3.37021 25.3666 3.46383 25.4595 3.46383L25.3666 3.55745L25.1807 3.46383C22.9507 2.24681 22.0216 4.30638 22.1145 6.27234C22.1145 7.02127 22.1145 7.77021 22.2074 8.42553V8.51915H22.1145C22.1145 8.51915 22.0216 8.42553 22.0216 8.33191L21.9287 8.2383C21.7428 8.14468 21.3712 8.14468 21.1853 8.2383C20.9066 8.42553 20.8137 8.70638 20.7207 9.08085C20.5349 10.2043 20.9066 12.2638 21.3712 14.2298C22.1145 17.1319 22.5791 17.6 24.9949 19.2851C29.5478 22.4681 33.9149 23.1234 35.8662 16.4766C36.8882 13.2936 36.052 12.3574 35.2157 8.98723Z" fill="#EE2930"/>
<path fill-rule="evenodd" clip-rule="evenodd" d="M59.2812 7.48936L58.0732 14.7915H60.8607L61.697 9.45532H63.5553L62.7191 14.7915H65.5066L66.7145 7.48936H59.2812ZM72.9399 7.48936L71.732 14.7915H78.1432L78.422 13.1064H74.7982L74.9841 11.983H78.422L78.7007 10.2979H75.2628L75.4487 9.26808H78.9795L79.2582 7.48936H72.9399ZM84.9262 7.48936L84.5545 9.64255H86.9703L86.1341 14.7915H88.9216L89.7578 9.64255H92.1737L92.6382 7.48936H84.9262ZM98.492 7.48936L97.2841 14.7915H103.695L103.974 13.1064H100.35L100.536 11.983H103.974L104.253 10.2979H100.815L101.001 9.26808H104.532L104.81 7.58298H98.492V7.48936ZM110.943 7.48936L109.735 14.7915H112.522L112.894 12.6383H114.381C116.611 12.6383 117.726 11.234 117.912 10.017C118.097 8.70638 117.354 7.39574 115.217 7.39574H110.943V7.48936ZM113.359 9.26808H114.009C115.031 9.26808 115.217 9.73617 115.124 10.2043C114.938 11.1404 114.009 11.1404 113.73 11.1404H113.08L113.359 9.26808ZM124.323 7.48936L123.115 14.7915H127.389C129.805 14.7915 130.641 13.5745 130.734 12.5447C130.92 11.4213 130.362 10.2979 128.318 10.2979H126.646L126.832 9.26808H130.548L130.827 7.39574H124.323V7.48936ZM126.367 11.7957H127.11C127.761 11.7957 127.947 12.1702 127.947 12.5447C127.854 13.0128 127.482 13.2936 126.924 13.2936H126.088L126.367 11.7957ZM137.052 7.48936L138.632 12.2638C138.725 12.5447 138.725 12.7319 138.725 12.7319C138.725 13.0128 138.353 13.0128 138.167 13.0128C137.982 13.0128 137.703 13.0128 137.238 12.8255L136.959 14.6979C137.517 14.8851 138.26 14.9787 138.818 14.9787C140.583 14.9787 141.327 13.8553 141.791 13.0128L144.95 7.48936H142.163L140.676 10.6723L140.212 7.48936H137.052ZM150.525 7.48936L149.317 14.7915H152.105L152.477 12.6383H153.963C156.193 12.6383 157.308 11.234 157.494 10.017C157.68 8.70638 156.937 7.39574 154.799 7.39574H150.525V7.48936ZM153.034 9.26808H153.592C154.614 9.26808 154.799 9.73617 154.707 10.2043C154.521 11.1404 153.592 11.1404 153.313 11.1404H152.662L153.034 9.26808ZM163.998 7.48936L162.79 14.7915H165.578L166.414 9.54894H169.573L169.945 7.48936H163.998ZM181.467 12.7319C180.723 13.0128 180.259 13.0128 179.98 13.0128C178.214 13.0128 178.122 11.7957 178.307 11.1404C178.493 10.1106 179.422 9.26808 180.537 9.26808C181.095 9.26808 181.559 9.3617 181.931 9.54894L182.21 7.58298H182.024C181.745 7.48936 181.095 7.39574 180.259 7.39574C177.007 7.39574 175.52 9.26808 175.241 11.234C174.869 13.4809 176.17 15.0723 178.958 15.0723C179.515 15.0723 180.166 14.9787 181.002 14.7915L181.467 12.7319ZM190.944 7.48936H188.157L186.949 14.7915H189.736L190.201 11.7021L191.502 14.7915H194.847L192.802 10.8596L195.776 7.39574H192.617L190.479 10.2979L190.944 7.48936ZM201.908 7.48936L200.7 14.7915H203.952L206.461 10.6723L205.811 14.7915H208.598L209.806 7.48936H206.554L204.045 11.7021L204.696 7.48936H201.908ZM216.124 7.48936L214.917 14.7915H221.328L221.607 13.1064H217.983L218.169 11.983H221.607L221.885 10.2979H218.447L218.633 9.26808H222.164L222.443 7.58298H216.124V7.48936Z" fill="#0186CB"/>
</g>
<defs>
<clipPath id="clip0_517_808">
<rect width="223" height="44" fill="white"/>
</clipPath>
</defs>
</svg>
