<svg width="140" height="48" viewBox="0 0 140 48" fill="none" xmlns="http://www.w3.org/2000/svg">
<path fill-rule="evenodd" clip-rule="evenodd" d="M39.1816 37.5552C34.9012 43.8421 27.7234 48.0001 19.5908 48.0001C11.4581 48.0001 4.28034 43.8753 0 37.5552L1.58043 36.6238C5.53151 42.3785 12.1166 46.1373 19.5908 46.1373C27.0649 46.1373 33.65 42.3785 37.6011 36.6238L39.1816 37.5552Z" fill="white"/>
<path fill-rule="evenodd" clip-rule="evenodd" d="M19.5908 0C27.7234 0 34.9012 4.12474 39.1816 10.4449L37.6011 11.3763C33.65 5.62162 27.0649 1.86279 19.5908 1.86279C12.1166 1.86279 5.53151 5.62162 1.58043 11.3763L0 10.4449C4.28034 4.12474 11.4581 0 19.5908 0Z" fill="white"/>
<path fill-rule="evenodd" clip-rule="evenodd" d="M34.4402 34.7941C31.1147 39.451 25.7149 42.4781 19.6237 42.4781C13.5324 42.4781 8.0997 39.451 4.80713 34.7941L7.17778 33.397C10.0094 37.2223 14.5202 39.6839 19.6237 39.6839C24.7272 39.6839 29.238 37.2223 32.0696 33.397L34.4402 34.7941Z" fill="white"/>
<path fill-rule="evenodd" clip-rule="evenodd" d="M19.591 5.52173C25.6822 5.52173 31.115 8.54876 34.4075 13.2057L32.0369 14.6028C29.2053 10.7774 24.6945 8.31591 19.591 8.31591C14.4875 8.31591 9.97667 10.7774 7.14506 14.6028L4.77441 13.2057C8.09991 8.58202 13.4997 5.52173 19.591 5.52173Z" fill="white"/>
<path fill-rule="evenodd" clip-rule="evenodd" d="M28.8431 31.5344C26.67 34.2621 23.3445 35.9918 19.591 35.9918C15.8375 35.9918 12.512 34.2621 10.3389 31.5344L13.5656 29.6716C15.0802 31.3016 17.2203 32.3328 19.591 32.3328C21.9616 32.3328 24.1347 31.3016 25.6164 29.6716L28.8431 31.5344Z" fill="white"/>
<path fill-rule="evenodd" clip-rule="evenodd" d="M19.591 12.0083C23.3445 12.0083 26.67 13.738 28.8431 16.4657L25.6164 18.3285C24.1018 16.6985 21.9616 15.6673 19.591 15.6673C17.2203 15.6673 15.0472 16.6985 13.5656 18.3285L10.3389 16.4657C12.512 13.738 15.8704 12.0083 19.591 12.0083Z" fill="white"/>
<path fill-rule="evenodd" clip-rule="evenodd" d="M2.93025 31.6008C1.90956 29.2723 1.31689 26.711 1.31689 23.9834C1.31689 21.289 1.90956 18.7277 2.93025 16.3992L4.51069 17.3306C3.62169 19.3597 3.12781 21.6216 3.12781 23.9834C3.12781 26.3451 3.62169 28.6071 4.51069 30.6362L2.93025 31.6008Z" fill="white"/>
<path fill-rule="evenodd" clip-rule="evenodd" d="M36.2513 16.3992C37.272 18.7277 37.8647 21.289 37.8647 23.9834C37.8647 26.6778 37.305 29.2724 36.2513 31.5676L34.6709 30.6362C35.5599 28.6071 36.0538 26.3451 36.0538 23.9834C36.0538 21.6216 35.5599 19.3597 34.6709 17.3306L36.2513 16.3992Z" fill="white"/>
<path fill-rule="evenodd" clip-rule="evenodd" d="M8.52752 28.341C8.00071 27.0105 7.7373 25.5469 7.7373 24.0167C7.7373 22.4866 8.03364 21.0229 8.52752 19.6924L10.1409 20.6238C9.7787 21.6882 9.58114 22.8192 9.58114 24.0167C9.58114 25.2142 9.7787 26.3452 10.1409 27.4096L8.52752 28.341Z" fill="white"/>
<path fill-rule="evenodd" clip-rule="evenodd" d="M30.6866 19.6589C31.2134 20.9895 31.4768 22.4531 31.4768 23.9833C31.4768 25.5134 31.1805 26.977 30.6866 28.3076L29.0732 27.3762C29.4354 26.3117 29.633 25.1808 29.633 23.9833C29.633 22.7858 29.4354 21.6548 29.0732 20.5903L30.6866 19.6589Z" fill="white"/>
<path d="M19.5908 28.607C22.1185 28.607 24.1675 26.5369 24.1675 23.9833C24.1675 21.4297 22.1185 19.3596 19.5908 19.3596C17.0632 19.3596 15.0142 21.4297 15.0142 23.9833C15.0142 26.5369 17.0632 28.607 19.5908 28.607Z" fill="white"/>
<path fill-rule="evenodd" clip-rule="evenodd" d="M52.2529 9.48028V21.788H54.8869V10.6445L57.6527 21.788H60.5172L63.283 10.6445V21.788H65.917V7.9834H61.7684L59.1014 18.4948L56.3686 7.9834H53.6687C52.8785 7.9834 52.2529 8.64868 52.2529 9.48028ZM78.0666 18.4948H76.0911C75.7289 18.4948 75.4326 18.6279 75.2021 18.894C74.6753 19.393 74.0826 19.6591 73.4899 19.6591C72.1729 19.6591 71.4815 18.8275 71.3827 17.1975H78.2642C78.4617 13.0063 76.8813 10.9106 73.4899 10.9106C70.2632 10.9439 68.6169 12.7734 68.6169 16.3992C68.6169 20.0582 70.2303 21.9543 73.4241 22.0541C76.0581 22.0208 77.5069 20.7901 78.0666 18.4948ZM73.4241 13.1061C74.5765 13.1061 75.235 13.8379 75.3996 15.2682H71.4156C71.6132 13.8379 72.3046 13.1061 73.4241 13.1061ZM80.7665 19.9252H80.108V23.7838H82.6762V21.788H88.1419V23.7838H90.6772V19.9252H89.9199V12.3743C89.9528 11.4761 89.4918 11.0437 88.537 11.077H82.2811C82.2811 14.8691 82.0506 17.2641 80.7665 19.9252ZM84.6847 13.4387H87.3517V19.9252H83.4006C83.5652 19.5593 83.7298 19.0271 83.8945 18.3618C84.3225 16.7651 84.6847 15.368 84.6847 13.4387ZM96.1099 13.4387H100.555V21.788H103.09V12.6404C103.09 11.5759 102.53 11.0437 101.411 11.0437H93.5417V21.788H94.3978C95.5172 21.788 96.077 21.2557 96.077 20.1913V13.4387H96.1099ZM108.589 24.6487C108.589 25.5468 108.161 25.9792 107.272 25.9792H105.922V15.7339C106.053 12.5406 107.7 10.9439 110.894 10.9439C114.186 10.9439 115.832 12.7402 115.832 16.3659C115.832 20.025 114.417 21.921 111.585 22.0208C110.268 22.0208 109.247 21.4886 108.556 20.3576V24.6487H108.589ZM110.861 19.5925C112.309 19.5925 113.034 18.5614 113.1 16.499C113.1 14.3368 112.342 13.2391 110.795 13.2391C109.28 13.2391 108.556 14.3036 108.556 16.499C108.688 18.5614 109.412 19.5925 110.861 19.5925ZM127.389 18.4948H125.414C125.052 18.4948 124.755 18.6279 124.525 18.894C123.998 19.393 123.405 19.6591 122.813 19.6591C121.496 19.6591 120.804 18.8275 120.705 17.1975H127.587C127.784 13.0063 126.204 10.9106 122.813 10.9106C119.586 10.9439 117.94 12.7734 117.94 16.3992C117.94 20.0582 119.553 21.9543 122.747 22.0541C125.381 22.0208 126.797 20.7901 127.389 18.4948ZM122.747 13.1061C123.899 13.1061 124.558 13.8379 124.722 15.2682H120.738C120.936 13.8379 121.594 13.1061 122.747 13.1061ZM130.089 19.9252H129.431V23.7838H131.999V21.788H137.465V23.7838H140V19.9252H139.243V12.3743C139.275 11.4761 138.814 11.0437 137.86 11.077H131.604C131.604 14.8691 131.373 17.2641 130.089 19.9252ZM134.007 13.4387H136.674V19.9252H132.723C132.888 19.5593 133.053 19.0271 133.217 18.3618C133.645 16.7651 134.007 15.368 134.007 13.4387ZM63.9415 35.0271H61.2416C60.9453 36.5572 59.9246 37.5219 58.1795 37.5219C55.6442 37.5219 54.5248 35.6258 54.5248 32.9314C54.5248 30.1372 55.6772 28.3077 58.2454 28.3077C59.5624 28.3077 60.4843 28.8067 60.9453 29.8046C61.2087 30.3368 61.6367 30.6362 62.2623 30.6362H63.9415C63.8098 29.1393 63.2501 27.9418 62.2952 27.077C61.2745 26.2121 59.9246 25.8129 58.2454 25.8129C53.9321 25.8129 51.7261 28.5073 51.7261 32.9314C51.7261 37.2225 53.8004 40.0499 58.0149 40.0499C61.4721 40.0167 63.6781 38.1871 63.9415 35.0271ZM77.1776 29.9377C77.1776 27.1102 75.5972 26.0125 72.7656 26.0125H67.5963C66.806 26.0125 66.1804 26.711 66.1804 27.5094V39.8171H68.9791V34.4616H71.9424C73.5887 34.4616 73.8851 34.9938 73.9838 36.657C74.0168 37.9876 74.0497 38.7859 74.1155 38.9855C74.1485 39.2849 74.1814 39.551 74.346 39.8171H77.4081C77.1447 39.6508 76.9801 39.3181 76.9801 38.9189L76.8484 36.2246C76.7825 35.3264 76.6837 34.6279 76.4203 34.1622C76.124 33.7298 75.696 33.3971 75.1033 33.1975C76.4203 32.8316 77.1776 31.6674 77.1776 29.9377ZM74.346 30.2038C74.346 31.5343 73.5887 32.0333 72.2717 32.0333H68.9791V28.4075H72.4363C73.6875 28.4075 74.346 28.9397 74.346 30.2038ZM79.647 27.4761V39.7838H82.2811V28.6736L85.0798 39.8171H87.9443L90.743 28.6736V39.8171H93.3771V26.0125H89.2284L86.5614 36.5239L83.7957 26.0125H81.0958C80.2726 26.0125 79.647 26.6778 79.647 27.4761Z" fill="white"/>
</svg>
